<mxfile host="app.diagrams.net" modified="2021-06-11T06:41:42.490Z" agent="5.0 (Windows NT 10.0; Win64; x64) AppleWebKit/537.36 (KHTML, like Gecko) Chrome/90.0.4430.212 Safari/537.36" etag="dtZnKBLmNxnEFnv5rEe4" version="14.5.1" type="github">
  <diagram id="C5RBs43oDa-KdzZeNtuy" name="Page-1">
    <mxGraphModel dx="1422" dy="706" grid="1" gridSize="10" guides="1" tooltips="1" connect="1" arrows="1" fold="1" page="1" pageScale="1" pageWidth="827" pageHeight="1169" math="0" shadow="0">
      <root>
        <mxCell id="WIyWlLk6GJQsqaUBKTNV-0" />
        <mxCell id="WIyWlLk6GJQsqaUBKTNV-1" parent="WIyWlLk6GJQsqaUBKTNV-0" />
        <mxCell id="RVAC2XV0_P0tuHo6thdl-79" value="" style="rounded=1;whiteSpace=wrap;html=1;strokeColor=#000000;fillColor=#FFFFFF;fontSize=12;align=left;" vertex="1" parent="WIyWlLk6GJQsqaUBKTNV-1">
          <mxGeometry x="170" y="910" width="257.75" height="280" as="geometry" />
        </mxCell>
        <mxCell id="RVAC2XV0_P0tuHo6thdl-9" value="" style="rounded=1;whiteSpace=wrap;html=1;strokeColor=#000000;fillColor=#FFFFFF;" vertex="1" parent="WIyWlLk6GJQsqaUBKTNV-1">
          <mxGeometry x="979" y="940" width="361" height="250" as="geometry" />
        </mxCell>
        <mxCell id="RVAC2XV0_P0tuHo6thdl-6" value="" style="rounded=1;whiteSpace=wrap;html=1;strokeColor=#000000;fillColor=#FFFFFF;" vertex="1" parent="WIyWlLk6GJQsqaUBKTNV-1">
          <mxGeometry x="490" y="910" width="400" height="280" as="geometry" />
        </mxCell>
        <mxCell id="RVAC2XV0_P0tuHo6thdl-4" value="&lt;pre&gt;&lt;span style=&quot;font-size: 16px ; background-color: rgb(255 , 255 , 255)&quot;&gt;&lt;b&gt;keepalivedCollector&lt;/b&gt;&lt;/span&gt;&lt;span style=&quot;background-color: rgb(43 , 43 , 43) ; color: rgb(169 , 183 , 198) ; font-size: 12pt&quot;&gt;&lt;br&gt;&lt;/span&gt;&lt;/pre&gt;&lt;pre&gt;&lt;span style=&quot;font-size: 16px ; background-color: rgb(255 , 255 , 255)&quot;&gt;&lt;b&gt;&lt;br&gt;&lt;/b&gt;&lt;/span&gt;&lt;/pre&gt;" style="html=1;fillColor=#FFFFFF;" vertex="1" parent="WIyWlLk6GJQsqaUBKTNV-1">
          <mxGeometry x="200" y="970" width="195.5" height="70" as="geometry" />
        </mxCell>
        <mxCell id="RVAC2XV0_P0tuHo6thdl-12" style="edgeStyle=orthogonalEdgeStyle;rounded=0;orthogonalLoop=1;jettySize=auto;html=1;exitX=0.5;exitY=1;exitDx=0;exitDy=0;fontSize=12;" edge="1" parent="WIyWlLk6GJQsqaUBKTNV-1" source="RVAC2XV0_P0tuHo6thdl-5" target="RVAC2XV0_P0tuHo6thdl-8">
          <mxGeometry relative="1" as="geometry" />
        </mxCell>
        <mxCell id="RVAC2XV0_P0tuHo6thdl-5" value="func (k *KeepalivedCollector) Collect(ch chan&amp;lt;- prometheus.Metric)&amp;nbsp;" style="html=1;" vertex="1" parent="WIyWlLk6GJQsqaUBKTNV-1">
          <mxGeometry x="505" y="970" width="365" height="40" as="geometry" />
        </mxCell>
        <mxCell id="RVAC2XV0_P0tuHo6thdl-7" value="collector" style="text;html=1;align=center;verticalAlign=middle;resizable=0;points=[];autosize=1;fontStyle=1;fontSize=24;" vertex="1" parent="WIyWlLk6GJQsqaUBKTNV-1">
          <mxGeometry x="620" y="920" width="120" height="30" as="geometry" />
        </mxCell>
        <mxCell id="RVAC2XV0_P0tuHo6thdl-11" style="edgeStyle=orthogonalEdgeStyle;rounded=0;orthogonalLoop=1;jettySize=auto;html=1;exitX=1;exitY=0.5;exitDx=0;exitDy=0;entryX=0;entryY=0.5;entryDx=0;entryDy=0;fontSize=12;" edge="1" parent="WIyWlLk6GJQsqaUBKTNV-1" source="RVAC2XV0_P0tuHo6thdl-8" target="RVAC2XV0_P0tuHo6thdl-10">
          <mxGeometry relative="1" as="geometry" />
        </mxCell>
        <mxCell id="RVAC2XV0_P0tuHo6thdl-75" style="edgeStyle=orthogonalEdgeStyle;rounded=0;orthogonalLoop=1;jettySize=auto;html=1;exitX=1;exitY=0.25;exitDx=0;exitDy=0;entryX=0;entryY=0.5;entryDx=0;entryDy=0;fontSize=12;dashed=1;" edge="1" parent="WIyWlLk6GJQsqaUBKTNV-1" source="RVAC2XV0_P0tuHo6thdl-8" target="RVAC2XV0_P0tuHo6thdl-27">
          <mxGeometry relative="1" as="geometry" />
        </mxCell>
        <mxCell id="RVAC2XV0_P0tuHo6thdl-8" value="func (k *KeepalivedCollector) getKeepalivedStats() &lt;br&gt;(*KeepalivedStats, error)" style="rounded=0;whiteSpace=wrap;html=1;strokeColor=#000000;fillColor=#FFFFFF;fontSize=12;" vertex="1" parent="WIyWlLk6GJQsqaUBKTNV-1">
          <mxGeometry x="590" y="1048" width="280" height="40" as="geometry" />
        </mxCell>
        <mxCell id="RVAC2XV0_P0tuHo6thdl-15" style="edgeStyle=orthogonalEdgeStyle;rounded=0;orthogonalLoop=1;jettySize=auto;html=1;fontSize=12;" edge="1" parent="WIyWlLk6GJQsqaUBKTNV-1" source="RVAC2XV0_P0tuHo6thdl-10" target="RVAC2XV0_P0tuHo6thdl-14">
          <mxGeometry relative="1" as="geometry" />
        </mxCell>
        <mxCell id="RVAC2XV0_P0tuHo6thdl-25" style="edgeStyle=orthogonalEdgeStyle;rounded=0;orthogonalLoop=1;jettySize=auto;html=1;exitX=0.25;exitY=1;exitDx=0;exitDy=0;entryX=0.75;entryY=0;entryDx=0;entryDy=0;fontSize=12;" edge="1" parent="WIyWlLk6GJQsqaUBKTNV-1" source="RVAC2XV0_P0tuHo6thdl-10" target="RVAC2XV0_P0tuHo6thdl-21">
          <mxGeometry relative="1" as="geometry" />
        </mxCell>
        <mxCell id="RVAC2XV0_P0tuHo6thdl-10" value="func (k *KeepalivedHostCollectorHost) StatsVrrps() (map[string]*collector.VRRPStats, error)" style="rounded=0;whiteSpace=wrap;html=1;strokeColor=#000000;fillColor=#FFFFFF;fontSize=12;" vertex="1" parent="WIyWlLk6GJQsqaUBKTNV-1">
          <mxGeometry x="993" y="1046" width="280" height="44" as="geometry" />
        </mxCell>
        <mxCell id="RVAC2XV0_P0tuHo6thdl-14" value="func (k *KeepalivedHostCollectorHost) signal(signal os.Signal) &lt;br&gt;error" style="rounded=0;whiteSpace=wrap;html=1;strokeColor=#000000;fillColor=#FFFFFF;fontSize=12;" vertex="1" parent="WIyWlLk6GJQsqaUBKTNV-1">
          <mxGeometry x="992" y="1130" width="338" height="40" as="geometry" />
        </mxCell>
        <mxCell id="RVAC2XV0_P0tuHo6thdl-16" value="host" style="text;html=1;align=center;verticalAlign=middle;resizable=0;points=[];autosize=1;fontStyle=1;fontSize=24;" vertex="1" parent="WIyWlLk6GJQsqaUBKTNV-1">
          <mxGeometry x="1124.5" y="950" width="70" height="30" as="geometry" />
        </mxCell>
        <mxCell id="RVAC2XV0_P0tuHo6thdl-17" value="向keepalived进程发送信号，&lt;br&gt;以获取keepalived信息数据" style="text;html=1;align=center;verticalAlign=middle;resizable=0;points=[];autosize=1;fontSize=12;" vertex="1" parent="WIyWlLk6GJQsqaUBKTNV-1">
          <mxGeometry x="1160" y="1100" width="170" height="30" as="geometry" />
        </mxCell>
        <mxCell id="RVAC2XV0_P0tuHo6thdl-20" value="1" style="ellipse;whiteSpace=wrap;html=1;aspect=fixed;strokeColor=#000000;fillColor=#FFFFFF;fontSize=12;" vertex="1" parent="WIyWlLk6GJQsqaUBKTNV-1">
          <mxGeometry x="998" y="1149" width="20" height="20" as="geometry" />
        </mxCell>
        <mxCell id="RVAC2XV0_P0tuHo6thdl-21" value="func ParseStats(i io.Reader) &lt;br&gt;(map[string]*VRRPStats, error)" style="rounded=0;whiteSpace=wrap;html=1;strokeColor=#000000;fillColor=#FFFFFF;fontSize=12;" vertex="1" parent="WIyWlLk6GJQsqaUBKTNV-1">
          <mxGeometry x="691" y="1130" width="175" height="40" as="geometry" />
        </mxCell>
        <mxCell id="RVAC2XV0_P0tuHo6thdl-22" value="2" style="ellipse;whiteSpace=wrap;html=1;aspect=fixed;strokeColor=#000000;fillColor=#FFFFFF;fontSize=12;" vertex="1" parent="WIyWlLk6GJQsqaUBKTNV-1">
          <mxGeometry x="860" y="1149" width="20" height="20" as="geometry" />
        </mxCell>
        <mxCell id="RVAC2XV0_P0tuHo6thdl-27" value="func (k *KeepalivedHostCollectorHost) DataVrrps() (map[string]*collector.VRRPData, error)同StatsVrrps" style="rounded=0;whiteSpace=wrap;html=1;strokeColor=#000000;fillColor=#FFFFFF;fontSize=12;dashed=1;" vertex="1" parent="WIyWlLk6GJQsqaUBKTNV-1">
          <mxGeometry x="992" y="985" width="313" height="50" as="geometry" />
        </mxCell>
        <mxCell id="RVAC2XV0_P0tuHo6thdl-29" value="采集动作" style="text;html=1;align=center;verticalAlign=middle;resizable=0;points=[];autosize=1;fontSize=12;" vertex="1" parent="WIyWlLk6GJQsqaUBKTNV-1">
          <mxGeometry x="425" y="1063" width="60" height="20" as="geometry" />
        </mxCell>
        <mxCell id="RVAC2XV0_P0tuHo6thdl-46" style="edgeStyle=orthogonalEdgeStyle;rounded=0;orthogonalLoop=1;jettySize=auto;html=1;fontSize=12;" edge="1" parent="WIyWlLk6GJQsqaUBKTNV-1" source="RVAC2XV0_P0tuHo6thdl-30" target="RVAC2XV0_P0tuHo6thdl-35">
          <mxGeometry relative="1" as="geometry" />
        </mxCell>
        <mxCell id="RVAC2XV0_P0tuHo6thdl-30" value="&lt;div&gt;VRRP Instance: VI_1&lt;/div&gt;&lt;div&gt;&amp;nbsp; Advertisements:&lt;/div&gt;&lt;div&gt;&amp;nbsp; &amp;nbsp; Received: 22&lt;/div&gt;&lt;div&gt;&amp;nbsp; &amp;nbsp; Sent: 161668&lt;/div&gt;&lt;div&gt;&amp;nbsp; Became master: 1&lt;/div&gt;&lt;div&gt;&amp;nbsp; Released master: 0&lt;/div&gt;&lt;div&gt;&amp;nbsp; Packet Errors:&lt;/div&gt;&lt;div&gt;&amp;nbsp; &amp;nbsp; Length: 0&lt;/div&gt;&lt;div&gt;&amp;nbsp; &amp;nbsp; TTL: 0&lt;/div&gt;&lt;div&gt;&amp;nbsp; &amp;nbsp; Invalid Type: 0&lt;/div&gt;&lt;div&gt;&amp;nbsp; &amp;nbsp; Advertisement Interval: 0&lt;/div&gt;&lt;div&gt;&amp;nbsp; &amp;nbsp; Address List: 0&lt;/div&gt;&lt;div&gt;&amp;nbsp; Authentication Errors:&lt;/div&gt;&lt;div&gt;&amp;nbsp; &amp;nbsp; Invalid Type: 0&lt;/div&gt;&lt;div&gt;&amp;nbsp; &amp;nbsp; Type Mismatch: 0&lt;/div&gt;&lt;div&gt;&amp;nbsp; &amp;nbsp; Failure: 0&lt;/div&gt;&lt;div&gt;&amp;nbsp; Priority Zero:&lt;/div&gt;&lt;div&gt;&amp;nbsp; &amp;nbsp; Received: 0&lt;/div&gt;&lt;div&gt;&amp;nbsp; &amp;nbsp; Sent: 0&lt;/div&gt;" style="text;html=1;strokeColor=#6c8ebf;fillColor=#dae8fc;align=center;verticalAlign=middle;whiteSpace=wrap;rounded=0;fontSize=12;" vertex="1" parent="WIyWlLk6GJQsqaUBKTNV-1">
          <mxGeometry x="190" y="1450" width="150" height="290" as="geometry" />
        </mxCell>
        <mxCell id="RVAC2XV0_P0tuHo6thdl-33" value="keepalived.stats" style="text;html=1;align=center;verticalAlign=middle;resizable=0;points=[];autosize=1;fontSize=12;" vertex="1" parent="WIyWlLk6GJQsqaUBKTNV-1">
          <mxGeometry x="190" y="1430" width="100" height="20" as="geometry" />
        </mxCell>
        <mxCell id="RVAC2XV0_P0tuHo6thdl-34" value="原始数据" style="text;html=1;align=center;verticalAlign=middle;resizable=0;points=[];autosize=1;fontSize=12;" vertex="1" parent="WIyWlLk6GJQsqaUBKTNV-1">
          <mxGeometry x="280" y="1430" width="60" height="20" as="geometry" />
        </mxCell>
        <mxCell id="RVAC2XV0_P0tuHo6thdl-48" style="edgeStyle=orthogonalEdgeStyle;rounded=0;orthogonalLoop=1;jettySize=auto;html=1;entryX=0.5;entryY=0;entryDx=0;entryDy=0;fontSize=12;dashed=1;" edge="1" parent="WIyWlLk6GJQsqaUBKTNV-1" source="RVAC2XV0_P0tuHo6thdl-35" target="RVAC2XV0_P0tuHo6thdl-43">
          <mxGeometry relative="1" as="geometry" />
        </mxCell>
        <mxCell id="RVAC2XV0_P0tuHo6thdl-57" style="edgeStyle=orthogonalEdgeStyle;rounded=0;orthogonalLoop=1;jettySize=auto;html=1;fontSize=12;" edge="1" parent="WIyWlLk6GJQsqaUBKTNV-1" source="RVAC2XV0_P0tuHo6thdl-35" target="RVAC2XV0_P0tuHo6thdl-38">
          <mxGeometry relative="1" as="geometry" />
        </mxCell>
        <mxCell id="RVAC2XV0_P0tuHo6thdl-70" style="edgeStyle=orthogonalEdgeStyle;rounded=0;orthogonalLoop=1;jettySize=auto;html=1;exitX=0.75;exitY=1;exitDx=0;exitDy=0;fontSize=12;entryX=0.25;entryY=0;entryDx=0;entryDy=0;dashed=1;" edge="1" parent="WIyWlLk6GJQsqaUBKTNV-1" source="RVAC2XV0_P0tuHo6thdl-35" target="RVAC2XV0_P0tuHo6thdl-40">
          <mxGeometry relative="1" as="geometry">
            <mxPoint x="910" y="1710" as="targetPoint" />
          </mxGeometry>
        </mxCell>
        <mxCell id="RVAC2XV0_P0tuHo6thdl-35" value="map[string]*VRRPStats" style="text;whiteSpace=wrap;html=1;fontSize=12;fillColor=#dae8fc;strokeColor=#6c8ebf;" vertex="1" parent="WIyWlLk6GJQsqaUBKTNV-1">
          <mxGeometry x="530" y="1580" width="150" height="30" as="geometry" />
        </mxCell>
        <mxCell id="RVAC2XV0_P0tuHo6thdl-56" style="edgeStyle=orthogonalEdgeStyle;rounded=0;orthogonalLoop=1;jettySize=auto;html=1;dashed=1;fontSize=12;" edge="1" parent="WIyWlLk6GJQsqaUBKTNV-1" source="RVAC2XV0_P0tuHo6thdl-38" target="RVAC2XV0_P0tuHo6thdl-40">
          <mxGeometry relative="1" as="geometry" />
        </mxCell>
        <mxCell id="RVAC2XV0_P0tuHo6thdl-62" style="edgeStyle=orthogonalEdgeStyle;rounded=0;orthogonalLoop=1;jettySize=auto;html=1;fontSize=12;" edge="1" parent="WIyWlLk6GJQsqaUBKTNV-1" source="RVAC2XV0_P0tuHo6thdl-38" target="RVAC2XV0_P0tuHo6thdl-61">
          <mxGeometry relative="1" as="geometry" />
        </mxCell>
        <mxCell id="RVAC2XV0_P0tuHo6thdl-38" value="&lt;div&gt;type KeepalivedStats struct {&lt;/div&gt;&lt;div&gt;&lt;span&gt;&lt;/span&gt;&amp;nbsp; &amp;nbsp; &amp;nbsp; &amp;nbsp;VRRPs&amp;nbsp; &amp;nbsp;[]VRRP&lt;/div&gt;&lt;div&gt;&lt;span&gt;&lt;/span&gt;&amp;nbsp; &amp;nbsp; &amp;nbsp; &amp;nbsp;Scripts []VRRPScript&lt;/div&gt;&lt;div&gt;}&lt;/div&gt;" style="text;html=1;align=left;verticalAlign=middle;resizable=0;points=[];autosize=1;fontSize=12;fillColor=#dae8fc;strokeColor=#6c8ebf;" vertex="1" parent="WIyWlLk6GJQsqaUBKTNV-1">
          <mxGeometry x="870" y="1565" width="170" height="60" as="geometry" />
        </mxCell>
        <mxCell id="RVAC2XV0_P0tuHo6thdl-40" value="&lt;div style=&quot;text-align: left&quot;&gt;type VRRP struct {&lt;/div&gt;&lt;div&gt;&lt;span&gt;&lt;/span&gt;&amp;nbsp; &amp;nbsp; &amp;nbsp; Data&amp;nbsp; VRRPData&amp;nbsp; `json:&quot;data&quot;`&lt;/div&gt;&lt;div&gt;&lt;span&gt;&lt;/span&gt;&amp;nbsp; &amp;nbsp; &amp;nbsp; Stats VRRPStats `json:&quot;stats&quot;`&lt;/div&gt;&lt;div style=&quot;text-align: left&quot;&gt;}&lt;/div&gt;" style="text;html=1;strokeColor=#6c8ebf;fillColor=#dae8fc;align=center;verticalAlign=middle;whiteSpace=wrap;rounded=0;fontSize=12;" vertex="1" parent="WIyWlLk6GJQsqaUBKTNV-1">
          <mxGeometry x="860" y="1719" width="190" height="70" as="geometry" />
        </mxCell>
        <mxCell id="RVAC2XV0_P0tuHo6thdl-42" value="解析后的数据以instance为key&lt;br&gt;存放于字典中的VRRPStats结构体中" style="text;html=1;align=center;verticalAlign=middle;resizable=0;points=[];autosize=1;fontSize=12;" vertex="1" parent="WIyWlLk6GJQsqaUBKTNV-1">
          <mxGeometry x="331" y="1605" width="210" height="30" as="geometry" />
        </mxCell>
        <mxCell id="RVAC2XV0_P0tuHo6thdl-43" value="&lt;div&gt;type VRRPStats struct {&lt;/div&gt;&lt;div&gt;&lt;span&gt;&amp;nbsp; &amp;nbsp; &amp;nbsp; &amp;nbsp;AdvertRcvd&amp;nbsp; &amp;nbsp; &amp;nbsp; &amp;nbsp; int `json:&quot;advert_rcvd&quot;`&lt;/span&gt;&lt;/div&gt;&lt;div&gt;&lt;span&gt;&amp;nbsp; &amp;nbsp; &amp;nbsp; &amp;nbsp;AdvertSent&amp;nbsp; &amp;nbsp; &amp;nbsp; &amp;nbsp; int `json:&quot;advert_sent&quot;`&lt;/span&gt;&lt;/div&gt;&lt;div&gt;&amp;nbsp; &amp;nbsp; &amp;nbsp; &amp;nbsp;BecomeMaster&amp;nbsp; &amp;nbsp; &amp;nbsp; int `json:&quot;become_master&quot;`&lt;/div&gt;&lt;div&gt;&amp;nbsp; &amp;nbsp; &amp;nbsp; &amp;nbsp;ReleaseMaster&amp;nbsp; &amp;nbsp; &amp;nbsp;int `json:&quot;release_master&quot;`&lt;/div&gt;&lt;div&gt;&amp;nbsp; &amp;nbsp; &amp;nbsp; &amp;nbsp;PacketLenErr&amp;nbsp; &amp;nbsp; &amp;nbsp; int `json:&quot;packet_len_err&quot;`&lt;/div&gt;&lt;div&gt;&amp;nbsp; &amp;nbsp; &amp;nbsp; &amp;nbsp;AdvertIntervalErr int `json:&quot;advert_interval_err&quot;`&lt;/div&gt;&lt;div&gt;&amp;nbsp; &amp;nbsp; &amp;nbsp; &amp;nbsp;IPTTLErr&amp;nbsp; &amp;nbsp; &amp;nbsp; &amp;nbsp; &amp;nbsp; int `json:&quot;ip_ttl_err&quot;`&lt;/div&gt;&lt;div&gt;&amp;nbsp; &amp;nbsp; &amp;nbsp; &amp;nbsp;InvalidTypeRcvd&amp;nbsp; &amp;nbsp;int `json:&quot;invalid_type_rcvd&quot;`&lt;/div&gt;&lt;div&gt;&amp;nbsp; &amp;nbsp; &amp;nbsp; &amp;nbsp;AddrListErr&amp;nbsp; &amp;nbsp; &amp;nbsp; &amp;nbsp;int `json:&quot;addr_list_err&quot;`&lt;/div&gt;&lt;div&gt;&amp;nbsp; &amp;nbsp; &amp;nbsp; &amp;nbsp;InvalidAuthType&amp;nbsp; &amp;nbsp;int `json:&quot;invalid_authtype&quot;`&lt;/div&gt;&lt;div&gt;&lt;span&gt;&amp;nbsp; &amp;nbsp; &amp;nbsp; &amp;nbsp;AuthTypeMismatch&amp;nbsp; int `json:&quot;authtype_mismatch&quot;`&lt;/span&gt;&lt;/div&gt;&lt;div&gt;&amp;nbsp; &amp;nbsp; &amp;nbsp; &amp;nbsp;AuthFailure&amp;nbsp; &amp;nbsp; &amp;nbsp; &amp;nbsp;int `json:&quot;auth_failure&quot;`&lt;/div&gt;&lt;div&gt;&amp;nbsp; &amp;nbsp; &amp;nbsp; &amp;nbsp;PRIZeroRcvd&amp;nbsp; &amp;nbsp; &amp;nbsp; &amp;nbsp;int `json:&quot;pri_zero_rcvd&quot;`&lt;/div&gt;&lt;div&gt;&amp;nbsp; &amp;nbsp; &amp;nbsp; &amp;nbsp;PRIZeroSent&amp;nbsp; &amp;nbsp; &amp;nbsp; &amp;nbsp;int `json:&quot;pri_zero_sent&quot;`&lt;/div&gt;&lt;div&gt;}&lt;/div&gt;" style="rounded=0;whiteSpace=wrap;html=1;strokeColor=#6c8ebf;fillColor=#dae8fc;fontSize=12;align=left;" vertex="1" parent="WIyWlLk6GJQsqaUBKTNV-1">
          <mxGeometry x="455" y="1655" width="300" height="230" as="geometry" />
        </mxCell>
        <mxCell id="RVAC2XV0_P0tuHo6thdl-52" style="edgeStyle=orthogonalEdgeStyle;rounded=0;orthogonalLoop=1;jettySize=auto;html=1;entryX=0.25;entryY=0;entryDx=0;entryDy=0;dashed=1;fontSize=12;" edge="1" parent="WIyWlLk6GJQsqaUBKTNV-1" source="RVAC2XV0_P0tuHo6thdl-51" target="RVAC2XV0_P0tuHo6thdl-35">
          <mxGeometry relative="1" as="geometry" />
        </mxCell>
        <mxCell id="RVAC2XV0_P0tuHo6thdl-51" value="考虑keepalived多实例的情况" style="shape=callout;whiteSpace=wrap;html=1;perimeter=calloutPerimeter;strokeColor=#000000;fillColor=#FFFFFF;fontSize=12;align=left;" vertex="1" parent="WIyWlLk6GJQsqaUBKTNV-1">
          <mxGeometry x="518" y="1375" width="120" height="80" as="geometry" />
        </mxCell>
        <mxCell id="RVAC2XV0_P0tuHo6thdl-54" style="edgeStyle=orthogonalEdgeStyle;rounded=0;orthogonalLoop=1;jettySize=auto;html=1;entryX=0.424;entryY=-0.167;entryDx=0;entryDy=0;entryPerimeter=0;dashed=1;fontSize=12;" edge="1" parent="WIyWlLk6GJQsqaUBKTNV-1" source="RVAC2XV0_P0tuHo6thdl-53" target="RVAC2XV0_P0tuHo6thdl-42">
          <mxGeometry relative="1" as="geometry" />
        </mxCell>
        <mxCell id="RVAC2XV0_P0tuHo6thdl-53" value="两个方法&lt;br&gt;StatsVrrps()--&amp;gt;ParseStats(i io.Reader)" style="rounded=0;whiteSpace=wrap;html=1;strokeColor=#000000;fillColor=#FFFFFF;fontSize=12;align=left;" vertex="1" parent="WIyWlLk6GJQsqaUBKTNV-1">
          <mxGeometry x="350" y="1450" width="210" height="60" as="geometry" />
        </mxCell>
        <mxCell id="RVAC2XV0_P0tuHo6thdl-58" value="将VRRPStats数据存放于&lt;br&gt;keepasliveStats中的VRRP中" style="text;html=1;align=center;verticalAlign=middle;resizable=0;points=[];autosize=1;fontSize=12;" vertex="1" parent="WIyWlLk6GJQsqaUBKTNV-1">
          <mxGeometry x="680" y="1595" width="170" height="30" as="geometry" />
        </mxCell>
        <mxCell id="RVAC2XV0_P0tuHo6thdl-60" style="edgeStyle=orthogonalEdgeStyle;rounded=0;orthogonalLoop=1;jettySize=auto;html=1;dashed=1;fontSize=12;" edge="1" parent="WIyWlLk6GJQsqaUBKTNV-1" source="RVAC2XV0_P0tuHo6thdl-59">
          <mxGeometry relative="1" as="geometry">
            <mxPoint x="910" y="1560" as="targetPoint" />
          </mxGeometry>
        </mxCell>
        <mxCell id="RVAC2XV0_P0tuHo6thdl-59" value="进一步封装，统一抽象，从keepalived层面要考虑检测脚本与VRRP本身两方面，便于生成指标" style="shape=callout;whiteSpace=wrap;html=1;perimeter=calloutPerimeter;strokeColor=#000000;fillColor=#FFFFFF;fontSize=12;align=left;" vertex="1" parent="WIyWlLk6GJQsqaUBKTNV-1">
          <mxGeometry x="870" y="1350" width="140" height="105" as="geometry" />
        </mxCell>
        <mxCell id="RVAC2XV0_P0tuHo6thdl-74" style="edgeStyle=orthogonalEdgeStyle;rounded=0;orthogonalLoop=1;jettySize=auto;html=1;entryX=0;entryY=0.5;entryDx=0;entryDy=0;dashed=1;fontSize=12;" edge="1" parent="WIyWlLk6GJQsqaUBKTNV-1" source="RVAC2XV0_P0tuHo6thdl-61" target="RVAC2XV0_P0tuHo6thdl-73">
          <mxGeometry relative="1" as="geometry" />
        </mxCell>
        <mxCell id="RVAC2XV0_P0tuHo6thdl-61" value="&lt;div&gt;type constMetric struct {&lt;/div&gt;&lt;div&gt;&lt;span&gt;&lt;/span&gt;&amp;nbsp; &amp;nbsp; desc&amp;nbsp; &amp;nbsp; &amp;nbsp; &amp;nbsp;*Desc&lt;/div&gt;&lt;div&gt;&lt;span&gt;&lt;/span&gt;&amp;nbsp; &amp;nbsp; valType&amp;nbsp; &amp;nbsp; ValueType&lt;/div&gt;&lt;div&gt;&lt;span&gt;&lt;/span&gt;&amp;nbsp; &amp;nbsp; val&amp;nbsp; &amp;nbsp; &amp;nbsp; &amp;nbsp; float64&lt;/div&gt;&lt;div&gt;&lt;span&gt;&lt;/span&gt;&amp;nbsp; &amp;nbsp; labelPairs []*dto.LabelPair&lt;/div&gt;&lt;div&gt;}&lt;/div&gt;" style="text;html=1;strokeColor=#6c8ebf;fillColor=#dae8fc;align=left;verticalAlign=middle;whiteSpace=wrap;rounded=0;fontSize=12;" vertex="1" parent="WIyWlLk6GJQsqaUBKTNV-1">
          <mxGeometry x="1140" y="1545" width="180" height="100" as="geometry" />
        </mxCell>
        <mxCell id="RVAC2XV0_P0tuHo6thdl-64" value="ch chan&amp;lt;- prometheus.Metric" style="text;html=1;align=center;verticalAlign=middle;resizable=0;points=[];autosize=1;fontSize=12;fillColor=#dae8fc;strokeColor=#6c8ebf;" vertex="1" parent="WIyWlLk6GJQsqaUBKTNV-1">
          <mxGeometry x="1140" y="1645" width="170" height="20" as="geometry" />
        </mxCell>
        <mxCell id="RVAC2XV0_P0tuHo6thdl-66" style="edgeStyle=orthogonalEdgeStyle;rounded=0;orthogonalLoop=1;jettySize=auto;html=1;entryX=0.25;entryY=0;entryDx=0;entryDy=0;dashed=1;fontSize=12;" edge="1" parent="WIyWlLk6GJQsqaUBKTNV-1" source="RVAC2XV0_P0tuHo6thdl-65" target="RVAC2XV0_P0tuHo6thdl-61">
          <mxGeometry relative="1" as="geometry" />
        </mxCell>
        <mxCell id="RVAC2XV0_P0tuHo6thdl-65" value="&lt;span style=&quot;text-align: center&quot;&gt;将keepalivedStats结构体的数据解析&lt;/span&gt;&lt;br style=&quot;text-align: center&quot;&gt;&lt;span style=&quot;text-align: center&quot;&gt;并包装至prometheus client库的结构体中，&lt;/span&gt;&lt;br style=&quot;text-align: center&quot;&gt;&lt;span style=&quot;text-align: center&quot;&gt;并传入channel供生成合规范的metric&lt;/span&gt;" style="shape=callout;whiteSpace=wrap;html=1;perimeter=calloutPerimeter;strokeColor=#000000;fillColor=#FFFFFF;fontSize=12;align=left;" vertex="1" parent="WIyWlLk6GJQsqaUBKTNV-1">
          <mxGeometry x="1140" y="1370" width="180" height="120" as="geometry" />
        </mxCell>
        <mxCell id="RVAC2XV0_P0tuHo6thdl-71" style="edgeStyle=orthogonalEdgeStyle;rounded=0;orthogonalLoop=1;jettySize=auto;html=1;dashed=1;fontSize=12;" edge="1" parent="WIyWlLk6GJQsqaUBKTNV-1" source="RVAC2XV0_P0tuHo6thdl-69">
          <mxGeometry relative="1" as="geometry">
            <mxPoint x="765" y="1590" as="targetPoint" />
          </mxGeometry>
        </mxCell>
        <mxCell id="RVAC2XV0_P0tuHo6thdl-69" value="&amp;nbsp;getKeepalivedStats()&lt;br&gt;将特定实例的VRRPStats与VRRPData封装到一起。放入VRRP列表中，一个结构体表示一个vrrp实例。" style="rounded=0;whiteSpace=wrap;html=1;strokeColor=#000000;fillColor=#FFFFFF;fontSize=12;align=left;" vertex="1" parent="WIyWlLk6GJQsqaUBKTNV-1">
          <mxGeometry x="675" y="1455" width="180" height="70" as="geometry" />
        </mxCell>
        <mxCell id="RVAC2XV0_P0tuHo6thdl-72" value="将统一好结构的数据&lt;br&gt;用于prometheus client库生成指标" style="text;html=1;align=center;verticalAlign=middle;resizable=0;points=[];autosize=1;fontSize=12;" vertex="1" parent="WIyWlLk6GJQsqaUBKTNV-1">
          <mxGeometry x="1000" y="1605" width="190" height="30" as="geometry" />
        </mxCell>
        <mxCell id="RVAC2XV0_P0tuHo6thdl-73" value="生成http请求所看到的页面" style="rounded=0;whiteSpace=wrap;html=1;strokeColor=#6c8ebf;fillColor=#dae8fc;fontSize=12;align=left;" vertex="1" parent="WIyWlLk6GJQsqaUBKTNV-1">
          <mxGeometry x="1380" y="1565" width="120" height="60" as="geometry" />
        </mxCell>
        <mxCell id="RVAC2XV0_P0tuHo6thdl-76" value="抽象数据" style="text;html=1;align=center;verticalAlign=middle;resizable=0;points=[];autosize=1;fontSize=12;" vertex="1" parent="WIyWlLk6GJQsqaUBKTNV-1">
          <mxGeometry x="908" y="1055" width="60" height="20" as="geometry" />
        </mxCell>
        <mxCell id="RVAC2XV0_P0tuHo6thdl-78" value="获取解析数据" style="text;html=1;align=center;verticalAlign=middle;resizable=0;points=[];autosize=1;fontSize=12;" vertex="1" parent="WIyWlLk6GJQsqaUBKTNV-1">
          <mxGeometry x="885" y="1100" width="90" height="20" as="geometry" />
        </mxCell>
        <mxCell id="RVAC2XV0_P0tuHo6thdl-80" value="CMD" style="text;html=1;align=center;verticalAlign=middle;resizable=0;points=[];autosize=1;fontStyle=1;fontSize=24;" vertex="1" parent="WIyWlLk6GJQsqaUBKTNV-1">
          <mxGeometry x="262.75" y="920" width="70" height="30" as="geometry" />
        </mxCell>
        <mxCell id="RVAC2XV0_P0tuHo6thdl-83" style="edgeStyle=orthogonalEdgeStyle;rounded=0;orthogonalLoop=1;jettySize=auto;html=1;entryX=0.5;entryY=0;entryDx=0;entryDy=0;dashed=1;fontSize=12;" edge="1" parent="WIyWlLk6GJQsqaUBKTNV-1" source="RVAC2XV0_P0tuHo6thdl-81" target="RVAC2XV0_P0tuHo6thdl-82">
          <mxGeometry relative="1" as="geometry" />
        </mxCell>
        <mxCell id="RVAC2XV0_P0tuHo6thdl-81" value="KeepalivedHostCollectorHost" style="rounded=0;whiteSpace=wrap;html=1;strokeColor=#000000;fillColor=#FFFFFF;fontSize=12;align=left;fontStyle=1" vertex="1" parent="WIyWlLk6GJQsqaUBKTNV-1">
          <mxGeometry x="207.75" y="1005" width="180" height="30" as="geometry" />
        </mxCell>
        <mxCell id="RVAC2XV0_P0tuHo6thdl-86" style="edgeStyle=orthogonalEdgeStyle;rounded=0;orthogonalLoop=1;jettySize=auto;html=1;exitX=0.5;exitY=1;exitDx=0;exitDy=0;dashed=1;fontSize=12;" edge="1" parent="WIyWlLk6GJQsqaUBKTNV-1" source="RVAC2XV0_P0tuHo6thdl-82" target="RVAC2XV0_P0tuHo6thdl-85">
          <mxGeometry relative="1" as="geometry" />
        </mxCell>
        <mxCell id="RVAC2XV0_P0tuHo6thdl-82" value="MustRegister(keepalivedCollector)" style="rounded=0;whiteSpace=wrap;html=1;strokeColor=#000000;fillColor=#FFFFFF;fontSize=12;align=left;" vertex="1" parent="WIyWlLk6GJQsqaUBKTNV-1">
          <mxGeometry x="200.5" y="1078" width="195" height="30" as="geometry" />
        </mxCell>
        <mxCell id="RVAC2XV0_P0tuHo6thdl-84" value="注册Collector至prometheus client库" style="text;html=1;align=center;verticalAlign=middle;resizable=0;points=[];autosize=1;fontSize=12;" vertex="1" parent="WIyWlLk6GJQsqaUBKTNV-1">
          <mxGeometry x="200" y="1045" width="210" height="20" as="geometry" />
        </mxCell>
        <mxCell id="RVAC2XV0_P0tuHo6thdl-87" style="edgeStyle=orthogonalEdgeStyle;rounded=0;orthogonalLoop=1;jettySize=auto;html=1;exitX=1;exitY=0.5;exitDx=0;exitDy=0;entryX=0;entryY=0.5;entryDx=0;entryDy=0;dashed=1;fontSize=12;" edge="1" parent="WIyWlLk6GJQsqaUBKTNV-1" source="RVAC2XV0_P0tuHo6thdl-85" target="RVAC2XV0_P0tuHo6thdl-5">
          <mxGeometry relative="1" as="geometry" />
        </mxCell>
        <mxCell id="RVAC2XV0_P0tuHo6thdl-85" value="http.Handle(*metricsPath, promhttp.Handler())" style="rounded=0;whiteSpace=wrap;html=1;strokeColor=#000000;fillColor=#FFFFFF;fontSize=12;align=left;" vertex="1" parent="WIyWlLk6GJQsqaUBKTNV-1">
          <mxGeometry x="197.75" y="1133" width="200" height="40" as="geometry" />
        </mxCell>
        <mxCell id="RVAC2XV0_P0tuHo6thdl-90" value="MereicDataType" style="swimlane;fontStyle=1;align=center;verticalAlign=top;childLayout=stackLayout;horizontal=1;startSize=26;horizontalStack=0;resizeParent=1;resizeParentMax=0;resizeLast=0;collapsible=1;marginBottom=0;strokeColor=#000000;fillColor=#FFFFFF;fontSize=12;" vertex="1" parent="WIyWlLk6GJQsqaUBKTNV-1">
          <mxGeometry x="266" y="437" width="160" height="86" as="geometry" />
        </mxCell>
        <mxCell id="RVAC2XV0_P0tuHo6thdl-91" value="+ mondata: type" style="text;strokeColor=none;fillColor=none;align=left;verticalAlign=top;spacingLeft=4;spacingRight=4;overflow=hidden;rotatable=0;points=[[0,0.5],[1,0.5]];portConstraint=eastwest;" vertex="1" parent="RVAC2XV0_P0tuHo6thdl-90">
          <mxGeometry y="26" width="160" height="26" as="geometry" />
        </mxCell>
        <mxCell id="RVAC2XV0_P0tuHo6thdl-92" value="" style="line;strokeWidth=1;fillColor=none;align=left;verticalAlign=middle;spacingTop=-1;spacingLeft=3;spacingRight=3;rotatable=0;labelPosition=right;points=[];portConstraint=eastwest;" vertex="1" parent="RVAC2XV0_P0tuHo6thdl-90">
          <mxGeometry y="52" width="160" height="8" as="geometry" />
        </mxCell>
        <mxCell id="RVAC2XV0_P0tuHo6thdl-93" value="+ getmetric(type): data" style="text;strokeColor=none;fillColor=none;align=left;verticalAlign=top;spacingLeft=4;spacingRight=4;overflow=hidden;rotatable=0;points=[[0,0.5],[1,0.5]];portConstraint=eastwest;" vertex="1" parent="RVAC2XV0_P0tuHo6thdl-90">
          <mxGeometry y="60" width="160" height="26" as="geometry" />
        </mxCell>
        <mxCell id="RVAC2XV0_P0tuHo6thdl-105" style="edgeStyle=orthogonalEdgeStyle;rounded=0;orthogonalLoop=1;jettySize=auto;html=1;entryX=0.5;entryY=0;entryDx=0;entryDy=0;fontSize=12;" edge="1" parent="WIyWlLk6GJQsqaUBKTNV-1" source="RVAC2XV0_P0tuHo6thdl-94" target="RVAC2XV0_P0tuHo6thdl-89">
          <mxGeometry relative="1" as="geometry" />
        </mxCell>
        <mxCell id="RVAC2XV0_P0tuHo6thdl-94" value="ExampleCollector" style="swimlane;fontStyle=1;align=center;verticalAlign=top;childLayout=stackLayout;horizontal=1;startSize=26;horizontalStack=0;resizeParent=1;resizeParentMax=0;resizeLast=0;collapsible=1;marginBottom=0;strokeColor=#000000;fillColor=#FFFFFF;fontSize=12;" vertex="1" parent="WIyWlLk6GJQsqaUBKTNV-1">
          <mxGeometry x="530" y="430" width="249" height="140" as="geometry" />
        </mxCell>
        <mxCell id="RVAC2XV0_P0tuHo6thdl-95" value="+ mereicdatatype: MetricDataType" style="text;strokeColor=none;fillColor=none;align=left;verticalAlign=top;spacingLeft=4;spacingRight=4;overflow=hidden;rotatable=0;points=[[0,0.5],[1,0.5]];portConstraint=eastwest;" vertex="1" parent="RVAC2XV0_P0tuHo6thdl-94">
          <mxGeometry y="26" width="249" height="26" as="geometry" />
        </mxCell>
        <mxCell id="RVAC2XV0_P0tuHo6thdl-96" value="" style="line;strokeWidth=1;fillColor=none;align=left;verticalAlign=middle;spacingTop=-1;spacingLeft=3;spacingRight=3;rotatable=0;labelPosition=right;points=[];portConstraint=eastwest;" vertex="1" parent="RVAC2XV0_P0tuHo6thdl-94">
          <mxGeometry y="52" width="249" height="8" as="geometry" />
        </mxCell>
        <mxCell id="RVAC2XV0_P0tuHo6thdl-97" value="+ Describe(ch chan&lt;- *prometheus.Desc)&#xa;+ Collect(ch chan&lt;- prometheus.Metric)&#xa;&#xa;+ SetDesc() " style="text;strokeColor=none;fillColor=none;align=left;verticalAlign=top;spacingLeft=4;spacingRight=4;overflow=hidden;rotatable=0;points=[[0,0.5],[1,0.5]];portConstraint=eastwest;" vertex="1" parent="RVAC2XV0_P0tuHo6thdl-94">
          <mxGeometry y="60" width="249" height="80" as="geometry" />
        </mxCell>
        <mxCell id="RVAC2XV0_P0tuHo6thdl-98" value="&lt;p style=&quot;margin: 4px 0px 0px ; text-align: center&quot;&gt;&lt;font style=&quot;font-size: 12px&quot;&gt;&lt;i&gt;&amp;lt;&amp;lt;Interface&amp;gt;&amp;gt;&lt;/i&gt;&lt;br&gt;&lt;b&gt;Collector&lt;/b&gt;&lt;/font&gt;&lt;/p&gt;&lt;font style=&quot;font-size: 12px&quot;&gt;&lt;br&gt;&lt;/font&gt;&lt;hr size=&quot;1&quot;&gt;&lt;p style=&quot;margin: 0px 0px 0px 4px&quot;&gt;&lt;font style=&quot;font-size: 12px&quot;&gt;+&amp;nbsp;&lt;span style=&quot;color: rgb(32 , 34 , 36)&quot;&gt;Describe(chan&amp;lt;- *&lt;/span&gt;&lt;a href=&quot;https://pkg.go.dev/github.com/prometheus/client_golang/prometheus@v1.11.0#Desc&quot; style=&quot;box-sizing: border-box&quot;&gt;Desc&lt;/a&gt;&lt;span style=&quot;color: rgb(32 , 34 , 36)&quot;&gt;)&lt;/span&gt;&lt;/font&gt;&lt;/p&gt;&lt;p style=&quot;margin: 0px 0px 0px 4px&quot;&gt;&lt;font style=&quot;font-size: 12px&quot;&gt;+&amp;nbsp;&lt;span style=&quot;color: rgb(32 , 34 , 36)&quot;&gt;Collect(chan&amp;lt;- &lt;/span&gt;&lt;a href=&quot;https://pkg.go.dev/github.com/prometheus/client_golang/prometheus@v1.11.0#Metric&quot; style=&quot;box-sizing: border-box&quot;&gt;Metric&lt;/a&gt;&lt;span style=&quot;color: rgb(32 , 34 , 36)&quot;&gt;)&lt;/span&gt;&lt;/font&gt;&lt;/p&gt;" style="verticalAlign=top;align=left;overflow=fill;fontSize=12;fontFamily=Helvetica;html=1;strokeColor=#000000;fillColor=#FFFFFF;" vertex="1" parent="WIyWlLk6GJQsqaUBKTNV-1">
          <mxGeometry x="560" y="260" width="190" height="100" as="geometry" />
        </mxCell>
        <mxCell id="RVAC2XV0_P0tuHo6thdl-101" value="" style="endArrow=block;dashed=1;endFill=0;endSize=12;html=1;fontSize=12;exitX=0.5;exitY=0;exitDx=0;exitDy=0;entryX=0.5;entryY=1;entryDx=0;entryDy=0;" edge="1" parent="WIyWlLk6GJQsqaUBKTNV-1" source="RVAC2XV0_P0tuHo6thdl-94" target="RVAC2XV0_P0tuHo6thdl-98">
          <mxGeometry width="160" relative="1" as="geometry">
            <mxPoint x="650" y="400" as="sourcePoint" />
            <mxPoint x="810" y="400" as="targetPoint" />
          </mxGeometry>
        </mxCell>
        <mxCell id="RVAC2XV0_P0tuHo6thdl-106" value="" style="group" vertex="1" connectable="0" parent="WIyWlLk6GJQsqaUBKTNV-1">
          <mxGeometry x="555" y="635" width="200" height="50" as="geometry" />
        </mxCell>
        <mxCell id="RVAC2XV0_P0tuHo6thdl-89" value="&lt;br&gt;&lt;br&gt;MustRegister(ExampleCollector)" style="html=1;strokeColor=#000000;fillColor=#FFFFFF;fontSize=12;align=left;" vertex="1" parent="RVAC2XV0_P0tuHo6thdl-106">
          <mxGeometry width="200" height="50" as="geometry" />
        </mxCell>
        <mxCell id="RVAC2XV0_P0tuHo6thdl-102" value="main.go" style="text;html=1;fillColor=none;align=center;verticalAlign=middle;whiteSpace=wrap;rounded=0;fontSize=12;strokeColor=#000000;" vertex="1" parent="RVAC2XV0_P0tuHo6thdl-106">
          <mxGeometry width="40" height="20" as="geometry" />
        </mxCell>
        <mxCell id="RVAC2XV0_P0tuHo6thdl-108" value="" style="endArrow=diamondThin;endFill=1;endSize=24;html=1;dashed=1;fontSize=12;exitX=0.004;exitY=-0.05;exitDx=0;exitDy=0;entryX=1;entryY=0.923;entryDx=0;entryDy=0;entryPerimeter=0;exitPerimeter=0;" edge="1" parent="WIyWlLk6GJQsqaUBKTNV-1" source="RVAC2XV0_P0tuHo6thdl-97" target="RVAC2XV0_P0tuHo6thdl-91">
          <mxGeometry width="160" relative="1" as="geometry">
            <mxPoint x="356" y="570" as="sourcePoint" />
            <mxPoint x="516" y="570" as="targetPoint" />
          </mxGeometry>
        </mxCell>
      </root>
    </mxGraphModel>
  </diagram>
</mxfile>
